# xmcd
#
# Track frame offsets:
#	150
#	18989
#	32454
#	54531
#	73993
#	93695
#	106343
#	125870
#	144948
#
# Disc length: 2123 seconds
#
# Revision: 1
# Processed by: cddbd v1.5.2PL0 Copyright (c) Steve Scherf et al.
# Submitted via: audiograbber 1.83.01
#
DISCID=7e084909
DTITLE=Jonny Kaplan and The Lazy Stars - Seasons
DYEAR=2008
DGENRE=Country
TTITLE0=Smoking Tar
TTITLE1=Seasons
TTITLE2=Still Lonely
TTITLE3=Keep Rollin'
TTITLE4=Golden Years
TTITLE5=Miracle Mile Madonna
TTITLE6=Together In The Morning
TTITLE7=Long Rain
TTITLE8=Sunflower Hair
EXTD=
EXTT0=
EXTT1=
EXTT2=
EXTT3=
EXTT4=
EXTT5=
EXTT6=
EXTT7=
EXTT8=
PLAYORDER=
